<svg xmlns="http://www.w3.org/2000/svg" width="885" height="239" viewBox="0 0 885 239" fill="none"><path d="M753.774 0.921674C744.536 2.12347 733.137 5.02781 733.137 6.12946C733.137 7.73185 746.993 52.3986 747.78 53.1998C748.074 53.5003 751.219 53.1998 754.757 52.3986C765.076 50.1953 764.585 49.8949 764.585 58.8082V66.6199L758.688 67.8217C751.514 69.1236 742.866 73.0295 737.755 77.1356C735.692 78.8381 733.726 80.0399 733.235 79.8396C732.842 79.6393 730.09 77.436 727.24 74.732C722.13 70.025 722.13 69.9248 723.899 67.9218C724.881 66.8202 728.223 64.2163 731.269 62.2133L736.871 58.5078L725.569 36.4748C719.378 24.3567 714.169 14.3417 713.973 14.1414C713.776 13.9411 712.204 14.542 710.337 15.5435C695.202 23.4554 676.431 42.2835 666.899 59.2088L664.245 63.9158L668.471 66.3194C670.83 67.6214 680.657 72.9293 690.288 78.0369C710.238 88.5527 707.487 88.4525 713.776 79.1386C715.349 76.8352 716.921 75.0325 717.216 75.0325C717.609 75.0325 720.262 77.436 723.112 80.3404L728.321 85.6483L724.783 91.6573C720.95 98.0669 717.412 108.482 717.412 113.189V116.094H709.649C705.324 116.094 701.59 115.793 701.393 115.293C700.902 114.592 701.787 108.282 703.162 101.572L703.85 98.5676L680.362 91.0564C667.488 86.9503 656.776 83.5452 656.58 83.5452C655.499 83.5452 652.55 98.4675 651.568 108.282C650.88 115.793 650.88 122.403 651.568 129.914C652.649 141.432 655.597 154.752 657.071 154.451C658.25 154.251 703.064 139.929 703.457 139.629C703.556 139.529 703.261 137.225 702.769 134.521C702.278 131.817 701.59 128.112 701.295 126.309L700.804 123.104H709.059C717.216 123.104 717.412 123.204 717.412 125.508C717.412 130.015 721.343 140.831 725.176 146.94L729.107 153.049L723.505 158.557C717.118 164.867 717.019 164.867 712.007 156.254C710.337 153.45 708.666 151.146 708.174 151.146C707.585 151.146 665.818 172.678 664.54 173.78C663.95 174.181 667.488 180.59 672.304 187.801C678.888 197.415 693.531 211.837 703.85 218.647C708.469 221.752 712.695 224.256 713.187 224.256C713.58 224.256 719.083 214.241 725.373 202.022L736.773 179.789L731.171 175.983C722.13 169.874 722.13 169.874 728.518 163.465L734.021 157.856L737.461 160.56C742.866 164.666 752.693 169.073 758.688 169.874L764.093 170.675L764.388 178.988C764.683 188.402 765.273 188.001 754.757 185.798C751.219 184.997 748.074 184.696 747.78 184.997C746.993 185.798 733.137 230.465 733.137 232.067C733.137 233.77 750.138 237.275 761.931 237.976C778.933 238.877 803.502 234.871 802.421 231.366C799.374 221.251 787.974 184.696 787.876 184.596C787.778 184.496 784.83 184.997 781.292 185.798C770.776 188.001 771.366 188.402 771.661 178.988L771.955 170.675L777.361 169.874C783.257 169.073 793.674 164.466 798.785 160.56L802.028 157.956L807.335 162.663C810.283 165.267 812.74 167.871 812.74 168.672C812.74 169.373 809.693 172.078 805.86 174.782C802.126 177.385 798.981 179.789 798.981 180.089C799.079 181.692 821.29 223.655 822.174 223.955C824.435 224.756 842.026 211.637 850.576 202.823C860.698 192.408 872.393 175.382 870.624 173.78C869.936 173.079 828.955 151.647 827.874 151.347C827.285 151.146 825.614 152.949 824.238 155.353C822.862 157.756 820.798 160.56 819.717 161.562C817.555 163.565 817.555 163.565 812.347 158.257L807.04 152.949L810.873 146.84C814.705 140.731 818.636 130.015 818.636 125.508C818.636 123.204 818.833 123.104 826.498 123.104C835.54 123.104 835.441 122.904 832.985 133.62C832.198 136.925 831.609 139.629 831.707 139.629C832.002 139.829 865.022 150.345 872.393 152.749L879.469 154.952L881.533 145.838C885.562 128.713 884.972 102.674 880.353 87.451L879.076 83.2447L855.49 90.8561C842.517 95.0624 831.805 98.4675 831.707 98.5676C831.609 98.5676 832.198 101.272 832.985 104.577C833.673 107.882 834.36 111.888 834.36 113.39V116.194L826.793 115.894L819.324 115.593L817.948 108.683C816.474 101.372 813.231 93.7605 809.104 88.1521L806.548 84.8471L812.052 79.2387L817.555 73.6304L819.619 76.1341C820.7 77.436 822.764 80.4405 824.14 82.8441C825.614 85.2477 827.285 87.0504 827.973 86.8501C831.314 86.0489 870.722 64.3164 870.722 63.3149C870.722 60.6109 857.848 42.7843 850.085 34.9726C842.124 26.7603 826.204 14.8425 822.862 14.542C821.781 14.4419 817.85 21.1519 810.086 36.4748C799.964 56.2043 798.883 58.6079 800.455 59.5093C803.895 61.6124 812.74 68.4226 812.74 69.0235C812.74 69.3239 810.381 71.9278 807.629 74.732L802.421 79.9398L796.819 76.034C790.333 71.6274 782.864 68.5227 776.083 67.5212L771.464 66.8202V58.9084C771.464 53.1998 771.857 50.9965 772.742 50.9965C773.331 51.0967 777.066 51.6976 780.8 52.3986C784.633 53.1998 787.778 53.7006 787.876 53.6004C788.171 53.3 802.814 5.52856 802.617 5.42841C802.519 5.32826 799.374 4.42691 795.542 3.52557C781.586 0.220626 766.452 -0.780871 753.774 0.921674ZM750.335 105.077C750.335 107.481 750.04 107.581 743.259 107.882L736.085 108.182V111.587V115.092H742.473H748.861V118.097V121.101H742.473H736.085V125.107V129.113H743.554H750.924L750.63 131.817L750.335 134.622H739.524H728.714L728.419 118.297L728.223 101.973L739.23 102.273L750.335 102.574V105.077ZM774.412 103.575C778.048 105.478 779.326 107.882 779.326 112.989C779.326 115.693 778.638 117.796 776.869 119.9L774.412 122.804L777.361 128.212C778.933 131.216 780.309 134.021 780.309 134.421C780.309 134.922 778.638 135.122 776.673 134.922C773.43 134.622 772.84 134.121 770.088 128.913C767.73 124.506 766.55 123.104 764.88 123.104C762.816 123.104 762.619 123.505 762.619 129.113V135.122H759.18H755.74V118.598V102.073H763.602C768.811 102.073 772.545 102.574 774.412 103.575ZM803.01 103.675C809.3 106.98 810.283 116.795 804.681 121.602C802.323 123.605 800.652 124.106 796.426 124.106H791.119V129.614V135.122H787.679H784.24V118.598V102.073H792.102C797.409 102.073 801.045 102.574 803.01 103.675Z" fill="#3D3F94"></path><path d="M762.619 112.588V117.095H766.354C770.579 117.095 772.447 115.693 772.447 112.388C772.447 109.784 769.793 108.082 765.666 108.082C762.717 108.082 762.619 108.182 762.619 112.588Z" fill="#3D3F94"></path><path d="M791.119 113.089V118.097H794.854C799.276 118.097 800.947 116.695 800.947 112.889C800.947 109.684 798.588 108.082 794.166 108.082C791.217 108.082 791.119 108.182 791.119 113.089Z" fill="#3D3F94"></path><path d="M0 93.4599V109.083H6.28964C18.6724 109.083 22.6034 106.88 22.6034 99.9696C22.6034 96.5645 22.112 95.6632 19.7534 94.3612L16.9034 92.6587L19.262 90.7559C22.3086 88.3523 22.5051 83.1445 19.5569 80.4404C17.8862 78.9382 15.6258 78.4374 8.74653 78.2371L0 77.8365V93.4599ZM15.1345 85.2476C16.9034 88.152 14.7413 90.5556 9.92584 90.856L5.89654 91.1565V87.0503V82.9442L9.92584 83.2446C12.5793 83.4449 14.4465 84.146 15.1345 85.2476ZM15.1345 96.6647C18.8689 100.37 15.6258 104.076 8.74653 104.076C5.99481 104.076 5.89654 103.875 5.89654 99.569V95.0623H9.72929C11.9896 95.0623 14.25 95.7633 15.1345 96.6647Z" fill="#3D3F94"></path><path d="M27.5171 93.56V109.083H30.4654C33.4136 109.083 33.4136 108.983 33.4136 103.575C33.4136 98.1669 33.5119 98.0668 36.1653 98.0668C38.524 98.0668 39.3102 98.868 41.5705 103.575C44.0274 108.683 44.4205 109.083 47.7619 109.083H51.2015L47.9584 102.974C45.1084 97.6662 44.9119 96.865 46.2877 96.0638C48.7446 94.5615 50.4153 89.5541 49.7274 85.5481C48.6464 80.14 44.6171 78.0368 35.1826 78.0368H27.5171V93.56ZM42.6515 85.1475C45.305 88.9532 42.1602 93.0593 36.6567 93.0593C33.4136 93.0593 33.4136 93.0593 33.4136 88.0518V83.0443H37.2464C40.0964 83.0443 41.5705 83.6452 42.6515 85.1475Z" fill="#3D3F94"></path><path d="M62.9946 80.2401C59.4567 90.0548 54.0515 106.479 54.0515 107.681C54.0515 108.583 55.1325 109.083 56.9015 109.083C59.3584 109.083 59.9481 108.482 60.9308 105.578C62.0118 102.073 62.1101 102.073 67.7118 102.073C73.3135 102.073 73.4118 102.173 74.2963 105.278C75.0825 107.982 75.7704 108.683 78.4239 108.883C80.1928 109.083 81.5687 108.783 81.5687 108.282C81.5687 107.481 74.0997 84.6467 72.2325 79.7394C71.7411 78.5376 70.4635 78.0368 67.7118 78.0368C64.567 78.0368 63.6825 78.4374 62.9946 80.2401ZM70.1687 91.4569C71.0532 94.1609 71.7411 96.5645 71.7411 96.7648C71.7411 96.9651 69.9722 97.0653 67.8101 97.0653C65.648 97.0653 63.8791 96.7648 63.8791 96.3642C63.8791 94.2611 67.3187 85.1475 67.9084 85.7484C68.2032 86.2491 69.2842 88.7529 70.1687 91.4569Z" fill="#3D3F94"></path><path d="M88.5464 80.6409C86.1878 82.5437 85.4998 84.0459 85.4998 86.6498C85.4998 91.0564 87.9567 93.5602 94.4429 95.463C102.01 97.7665 103.583 99.5691 100.634 102.473C98.2757 104.977 93.8533 104.476 91.5929 101.572C89.3326 98.6678 84.5171 98.0669 84.5171 100.671C84.5171 110.385 105.352 112.188 107.71 102.574C109.184 96.5647 106.138 92.8591 97.686 90.6558C92.2809 89.2537 90.3154 87.0504 92.2809 84.6468C94.2464 82.3434 99.9464 82.5437 101.224 85.0474C102.403 87.3509 107.12 87.8516 107.12 85.6483C107.12 80.9413 102.796 78.037 95.9171 78.037C92.674 78.037 90.8067 78.6379 88.5464 80.6409Z" fill="#3D3F94"></path><path d="M113.017 93.56V109.083H115.965H118.913V93.56V78.0368H115.965H113.017V93.56Z" fill="#3D3F94"></path><path d="M124.81 93.56V109.083H134.146C143.482 109.083 143.482 109.083 143.482 106.58C143.482 104.176 143.286 104.076 137.095 104.076H130.707V91.0563V78.0368H127.758H124.81V93.56Z" fill="#3D3F94"></path><path d="M152.229 79.5391C148.888 81.3418 147.119 86.149 148.396 89.6542C149.281 92.0578 153.114 94.2611 160.681 96.6647C164.612 97.9666 165.201 101.572 161.762 103.174C158.617 104.677 154.195 103.475 153.605 101.071C152.917 98.5675 147.414 98.1669 147.414 100.671C147.414 105.378 152.622 109.083 159.207 109.083C167.364 109.083 172.572 103.375 170.115 97.1654C168.739 93.9606 166.676 92.6587 160.288 90.7559C155.177 89.2536 153.31 86.9502 155.177 84.6467C157.045 82.3433 161.86 82.6437 163.334 85.0473C165.005 87.6512 170.017 87.8515 170.017 85.2476C169.919 83.0443 168.15 80.7409 165.398 79.2386C162.45 77.6362 155.374 77.8365 152.229 79.5391Z" fill="#3D3F94"></path><path d="M175.52 81.2416C176.405 83.0443 178.862 87.5511 180.925 91.2566C184.169 96.865 184.758 98.868 184.758 103.475C184.758 109.083 184.758 109.083 187.706 109.083C190.655 109.083 190.655 109.083 190.655 103.375C190.655 98.5675 191.244 96.6647 194.979 90.155C202.251 77.0353 202.055 78.0368 198.124 78.0368C194.979 78.0368 194.586 78.4374 191.539 84.5466C189.672 88.152 188.001 91.0563 187.706 91.0563C187.412 91.0563 185.741 88.152 183.874 84.5466C180.827 78.4374 180.434 78.0368 177.289 78.0368H173.85L175.52 81.2416Z" fill="#3D3F94"></path><path d="M205.396 93.56V109.083H208.345H211.293V99.569C211.293 94.3612 211.588 90.0548 212.079 90.0548C212.472 90.0548 215.617 94.3612 219.155 99.6692C224.658 107.881 225.838 109.183 228 108.883L230.457 108.583L230.751 93.2596L231.046 78.0368H228H225.051V87.5511C225.051 92.7589 224.757 97.0653 224.363 97.0653C223.872 97.0653 220.727 92.7589 217.288 87.5511C211.784 79.3388 210.605 78.0368 208.148 78.0368H205.396V93.56Z" fill="#3D3F94"></path><path d="M242.151 79.9398C238.22 82.3434 235.862 87.6514 235.862 93.7605C235.862 105.578 245.984 112.388 256.106 107.481C259.251 105.979 262.396 101.772 262.396 99.0684C262.396 96.8651 257.482 98.1671 254.632 101.172C252.077 103.675 250.996 104.176 248.834 103.575C247.36 103.275 245.394 102.173 244.313 101.071C242.053 98.768 241.267 91.3569 242.937 88.052C245.886 82.4436 253.453 81.5422 255.713 86.5497C257.089 89.6543 262.396 90.1551 262.396 87.2508C262.396 79.9398 249.62 75.3329 242.151 79.9398Z" fill="#3D3F94"></path><path d="M267.703 82.5438C266.917 86.049 266.917 87.351 267.899 88.1522C268.882 88.9534 269.57 88.4526 270.651 86.1492C272.813 81.9429 272.715 78.0371 270.455 78.0371C269.177 78.0371 268.489 79.339 267.703 82.5438Z" fill="#3D3F94"></path><path d="M280.184 80.6409C277.825 82.5437 277.138 84.0459 277.138 86.6498C277.138 90.9563 279.693 93.5602 285.196 95.0624C289.815 96.3644 293.844 98.5676 293.844 100.07C293.844 101.873 290.7 104.076 287.948 104.076C286.081 104.076 284.508 103.175 283.231 101.572C280.97 98.6678 276.155 98.0669 276.155 100.671C276.155 105.979 281.953 109.484 289.717 108.883C294.139 108.482 295.613 107.882 297.481 105.678C302.198 99.9697 299.151 93.2597 290.798 91.0564C284.41 89.454 284.017 89.2537 283.427 87.5512C281.855 83.3449 290.7 81.0415 292.862 85.0474C294.041 87.3509 298.758 87.8516 298.758 85.6483C298.758 80.9413 294.434 78.037 287.555 78.037C284.312 78.037 282.444 78.6379 280.184 80.6409Z" fill="#3D3F94"></path><path d="M339.739 101.873C331.287 110.586 324.31 118.397 324.31 119.098C324.31 119.9 331.484 127.811 340.23 136.825C357.134 154.151 359.591 155.653 361.851 150.645C362.932 148.242 362.342 147.441 350.058 134.722C342.884 127.411 337.085 120.601 337.085 119.599C337.085 118.598 342.884 111.888 349.861 104.577C356.937 97.2657 362.637 91.0564 362.637 90.6558C362.637 88.2522 360.278 86.0489 357.92 86.0489C355.66 86.0489 352.22 89.0534 339.739 101.873Z" fill="#3D3F94"></path><path d="M573.144 87.2507C572.456 87.9517 571.964 89.1535 571.964 90.0549C571.964 90.8561 577.468 97.1655 584.249 104.076C594.568 114.592 596.533 117.095 596.533 119.599C596.533 122.103 594.568 124.607 584.249 135.122C577.468 142.033 571.964 148.342 571.964 149.143C571.964 151.346 573.93 153.149 576.387 153.149C579.04 153.149 609.309 122.303 609.309 119.599C609.309 116.795 579.04 86.0489 576.288 86.0489C575.207 86.0489 573.832 86.5496 573.144 87.2507Z" fill="#3D3F94"></path><path d="M354.775 119.599V124.106H363.62H372.465V119.599V115.092H363.62H354.775V119.599Z" fill="#3D3F94"></path><path d="M390.155 119.599V124.106H398.508H406.861V119.599V115.092H398.508H390.155V119.599Z" fill="#3D3F94"></path><path d="M424.551 119.599V124.106H432.904H441.258V119.599V115.092H432.904H424.551V119.599Z" fill="#3D3F94"></path><path d="M458.947 119.599V124.106H467.301H475.654V119.599V115.092H467.301H458.947V119.599Z" fill="#3D3F94"></path><path d="M493.344 119.599V124.106H501.697H510.051V119.599V115.092H501.697H493.344V119.599Z" fill="#3D3F94"></path><path d="M527.74 119.599V124.106H536.094H544.447V119.599V115.092H536.094H527.74V119.599Z" fill="#3D3F94"></path><path d="M562.137 119.599V124.106H570.49H578.844V119.599V115.092H570.49H562.137V119.599Z" fill="#3D3F94"></path><path d="M52.9707 132.018C47.4673 137.726 50.7103 144.937 59.6534 146.639C64.7638 147.641 66.8276 148.843 66.8276 151.146C66.8276 155.453 60.1448 156.454 56.4103 152.648C53.6586 149.844 49.1379 149.243 49.1379 151.647C49.1379 152.448 50.4155 154.551 51.9879 156.354C54.6414 159.459 55.3293 159.659 61.2258 159.659C69.2844 159.659 72.7241 157.055 72.7241 151.046C72.7241 146.439 69.9724 143.935 62.4052 141.632C56.9017 140.03 55.7224 138.728 57.1965 135.823C58.4741 133.32 64.4689 133.52 66.0414 136.124C67.6138 138.627 72.7241 138.928 72.7241 136.524C72.7241 135.723 71.4465 133.62 69.8741 132.018C67.3189 129.514 66.2379 129.113 61.4224 129.113C56.6069 129.113 55.5259 129.514 52.9707 132.018Z" fill="#3D3F94"></path><path d="M76.655 129.814C76.655 130.215 78.7188 134.221 81.274 138.627C85.1067 145.237 85.9912 147.741 86.3843 153.149C86.974 159.559 86.974 159.659 89.9222 159.659C92.8705 159.659 92.8705 159.559 93.4602 153.149C93.8533 147.741 94.7378 145.237 98.5705 138.627C101.126 134.221 103.189 130.315 103.189 129.814C103.189 129.414 101.912 129.113 100.241 129.113C97.7843 129.113 96.9981 129.914 93.755 135.723C91.7895 139.329 89.9222 141.932 89.6274 141.632C89.2343 141.332 87.6619 138.427 85.9912 135.323C83.436 130.415 82.6498 129.614 79.8981 129.314C78.1292 129.113 76.655 129.314 76.655 129.814Z" fill="#3D3F94"></path><path d="M112.525 130.315C109.282 132.018 108.103 134.221 108.103 138.227C108.103 142.734 110.069 144.436 117.636 146.74C120.388 147.541 123.139 148.843 123.729 149.544C125.4 151.547 122.353 155.152 118.913 155.152C116.162 155.152 113.017 152.949 113.017 151.046C113.017 150.545 111.739 150.145 110.069 150.145C106.924 150.145 106.334 151.747 108.103 155.252C111.543 161.762 126.284 161.662 129.822 155.052C131.1 152.548 130.215 146.84 128.25 145.137C127.463 144.436 124.319 143.134 121.174 142.133C114.884 140.13 112.919 138.127 114.884 135.723C116.751 133.52 121.567 133.72 123.532 136.124C126.874 140.03 130.805 138.327 129.134 133.62C127.66 129.814 117.243 127.611 112.525 130.315Z" fill="#3D3F94"></path><path d="M133.655 131.617C133.655 133.921 133.95 134.121 138.569 134.121H143.482V147.14V160.16H146.431H149.379V147.14V134.121H153.801C157.831 134.121 158.224 133.921 158.224 131.617V129.114H145.939H133.655V131.617Z" fill="#3D3F94"></path><path d="M163.137 144.637V160.16H172.965C182.793 160.16 182.793 160.16 182.793 157.656C182.793 155.353 182.498 155.253 176.208 154.952L169.525 154.652L169.231 150.846L168.936 147.14H175.324C181.613 147.14 181.81 147.04 181.81 144.637C181.81 142.233 181.613 142.133 175.422 142.133H169.034V138.127V134.121H175.913C182.596 134.121 182.793 134.021 182.793 131.617V129.114H172.965H163.137V144.637Z" fill="#3D3F94"></path><path d="M188.689 144.637V160.16H191.637H194.487L194.782 149.945L195.077 139.729L198.812 149.444C202.055 157.656 202.939 159.158 204.806 159.158C206.674 159.158 207.656 157.656 210.9 149.344L214.732 139.629L215.027 149.844L215.322 160.16H218.172H221.12V144.637V129.114H217.287H213.553L209.622 138.828C207.362 144.236 205.2 148.543 204.806 148.442C204.315 148.442 202.251 144.036 200.089 138.728L196.158 129.114H192.424H188.689V144.637Z" fill="#3D3F94"></path><path d="M231.439 130.315C228.295 132.018 227.017 134.221 227.017 138.227C227.017 142.734 228.196 143.836 236.157 146.54C242.446 148.843 244.019 150.846 241.758 153.65C239.498 156.454 231.931 154.852 231.931 151.647C231.931 150.646 230.948 150.145 228.982 150.145C226.919 150.145 226.034 150.646 226.034 151.747C226.034 156.454 231.243 160.16 238.024 160.16C246.082 160.16 251.193 154.451 248.638 148.142C247.36 145.037 245.198 143.735 238.908 141.833C233.798 140.33 231.931 138.027 233.798 135.723C235.665 133.52 240.088 133.72 242.25 136.124C245.689 140.03 249.817 138.327 248.048 133.62C246.574 129.815 236.157 127.611 231.439 130.315Z" fill="#3D3F94"></path></svg>