<svg xmlns="http://www.w3.org/2000/svg" xmlns:xlink="http://www.w3.org/1999/xlink" width="804" height="118pt" viewBox="0 0 603 118"><clipPath id="a"><path transform="matrix(1 0 0 -1 0 118)" d="M108.756 40.858c0-16.442-13.329-29.771-29.771-29.771s-29.771 13.329-29.771 29.77c0 16.443 13.329 29.772 29.77 29.772 16.443 0 29.772-13.33 29.772-29.771z" fill-rule="evenodd"></path></clipPath><g clip-path="url(#a)"><path d="M104.29 77.142c0 13.976-11.33 25.306-25.305 25.306v8.931c18.908 0 34.237-15.328 34.237-34.237h-8.932zm-25.305 25.306c-13.976 0-25.305-11.33-25.305-25.306h-8.932c0 18.909 15.328 34.237 34.237 34.237v-8.931zM53.68 77.142c0-13.975 11.33-25.305 25.305-25.305v-8.931c-18.909 0-34.237 15.328-34.237 34.236h8.932zm25.305-25.305c13.976 0 25.305 11.33 25.305 25.305h8.932c0-18.908-15.329-34.236-34.237-34.236v8.931z" fill="#3d3f95"></path></g><path d="m12 68.211-2.189-.44-.539 2.673H12v-2.233zm18.979-24.189.782 2.092 1.301-.487.139-1.382-2.222-.223zm9.676-17.118-.805-2.083-.052.02-.051.023.908 2.04zm17.862-3.35-.081 2.232.863.031.66-.558-1.442-1.704zm15.258-10.791.911 2.038.014-.006.014-.006-.94-2.026zm14.141 0-.818 2.077.06.024.062.02.696-2.121zm17.863 16.746-1.98 1.034.472.902.99.236.518-2.172zm17.862 8.187 1.799-1.324-.18-.244-.238-.187-1.38 1.755zm7.815 16.374 2.232-.073-.004-.127-.019-.125-2.209.325zm-2.977 14.141v2.233h1.345l.629-1.188-1.974-1.045zm-84.847-2.233H12v4.466h31.632v-4.466zm-29.443 2.674c1.436-7.123 3.11-11.635 5.67-14.9 2.528-3.223 6.11-5.472 11.902-7.638l-1.564-4.183c-6.152 2.3-10.603 4.922-13.852 9.065-3.215 4.101-5.057 9.45-6.534 16.774l4.378.882zM33.2 44.245c.529-5.285 1.34-8.467 2.59-10.629 1.182-2.046 2.882-3.387 5.771-4.672l-1.815-4.08c-3.408 1.516-6.01 3.381-7.823 6.518-1.746 3.02-2.624 6.997-3.167 12.418l4.444.445zm8.258-15.258c6.47-2.499 10.092-3.452 16.977-3.201l.163-4.463c-7.674-.28-11.917.86-18.749 3.498l1.609 4.166zm18.5-3.728c7.282-6.159 10.084-8.383 14.727-10.458l-1.822-4.077c-5.3 2.37-8.552 5.005-15.789 11.126l2.884 3.41zm14.755-10.47c2.38-1.104 4.091-1.557 5.8-1.556 1.743 0 3.702.472 6.584 1.607l1.636-4.155c-3.077-1.212-5.65-1.917-8.218-1.918-2.602 0-4.982.72-7.68 1.97l1.878 4.052zm12.506.095c4.077 1.338 6.867 2.806 9.276 5.057 2.449 2.287 4.643 5.51 7.304 10.602l3.958-2.068c-2.74-5.244-5.213-8.995-8.214-11.798-3.04-2.839-6.48-4.575-10.932-6.036l-1.392 4.243zm18.04 16.797c7.912 1.889 11.569 3.498 17.001 7.77l2.76-3.51c-6.048-4.757-10.335-6.601-18.724-8.604l-1.037 4.344zm16.583 7.339c4.973 6.756 6.617 10.032 7.404 15.375l4.418-.65c-.941-6.393-3.07-10.368-8.225-17.373l-3.597 2.648zm7.382 15.123c.116 3.573-.078 5.846-.512 7.673-.432 1.813-1.127 3.31-2.207 5.35l3.947 2.09c1.125-2.126 2.038-4.027 2.604-6.407.563-2.365.754-5.079.63-8.852l-4.462.146zm-.746 11.835h-16.374v4.466h16.374v-4.466zM78.549 69.636a1.489 1.489 0 0 0 0-2.105l-9.473-9.473a1.489 1.489 0 0 0-2.106 2.105l8.421 8.42-8.42 8.42a1.489 1.489 0 0 0 2.105 2.106l9.473-9.473zm-20.032.436h18.98v-2.977h-18.98v2.977zM77.93 86.012a1.489 1.489 0 0 0 0 2.105l9.472 9.473a1.489 1.489 0 0 0 2.106-2.105l-8.421-8.42 8.42-8.421a1.489 1.489 0 0 0-2.105-2.105l-9.473 9.473zm20.03-.436H78.983v2.977H97.96v-2.977zM288.641 74.073zm2.941 0V44.257h11.414c2.155 0 3.945.34 5.372 1.019 1.436.67 2.509 1.587 3.217 2.751.719 1.165 1.078 2.485 1.078 3.96 0 1.213-.233 2.252-.699 3.116a5.877 5.877 0 0 1-1.878 2.082 7.948 7.948 0 0 1-2.635 1.15v.29c1.058.06 2.072.384 3.043.976.98.583 1.78 1.408 2.402 2.475.62 1.068.931 2.359.931 3.873 0 1.543-.373 2.931-1.12 4.164-.748 1.222-1.874 2.188-3.378 2.897-1.504.708-3.397 1.063-5.678 1.063h-12.069zm5.401-4.514h5.81c1.96 0 3.372-.373 4.236-1.12.873-.758 1.31-1.728 1.31-2.912 0-.884-.218-1.68-.655-2.388-.437-.718-1.058-1.281-1.864-1.689-.805-.417-1.766-.626-2.882-.626h-5.955v8.735zm0-12.622h5.343c.932 0 1.772-.17 2.519-.51.747-.349 1.334-.839 1.761-1.47.437-.64.656-1.398.656-2.271 0-1.155-.408-2.106-1.223-2.854-.806-.747-2.005-1.12-3.596-1.12h-5.46v8.225zm18.602 17.136zm14.777-29.816v29.816h-5.4v-24.56h-.176l-6.973 4.454v-4.95l7.41-4.76h5.14z" fill="#3d3f95"></path><use xlink:href="#b" transform="matrix(40.99693 0 0 -40.99693 288.641 74.073)"></use><use xlink:href="#c" transform="matrix(40.99693 0 0 -40.99693 315.576 74.073)"></use><clipPath id="d"><path transform="matrix(1 0 0 -1 0 118)" d="M359.913 58.994c0-26.513-21.493-48.006-48.006-48.006S263.9 32.481 263.9 58.994 285.394 107 311.907 107s48.006-21.493 48.006-48.006z" fill-rule="evenodd"></path></clipPath><g clip-path="url(#d)"><path d="M362.146 59.006a50.094 50.094 0 0 0-3.813-19.232l-4.126 1.711a45.63 45.63 0 0 1 3.473 17.52h4.466zM331.138 12.58a50.095 50.095 0 0 0-19.231-3.813v4.466c6.21 0 12.127 1.235 17.52 3.472l1.711-4.125zm-19.231-3.813a50.095 50.095 0 0 0-19.231 3.813l1.71 4.125a45.629 45.629 0 0 1 17.52-3.472V8.767zM265.48 39.774a50.095 50.095 0 0 0-3.813 19.232h4.466c0-6.21 1.236-12.127 3.472-17.521l-4.125-1.71zm-3.813 19.232a50.095 50.095 0 0 0 3.813 19.231l4.125-1.71a45.629 45.629 0 0 1-3.472-17.521h-4.466zm31.008 46.425a50.095 50.095 0 0 0 19.23 3.813v-4.465a45.629 45.629 0 0 1-17.52-3.473l-1.71 4.125zm19.23 3.813a50.095 50.095 0 0 0 19.232-3.813l-1.71-4.125a45.629 45.629 0 0 1-17.521 3.473v4.465zm46.427-31.007a50.094 50.094 0 0 0 3.813-19.231h-4.466a45.63 45.63 0 0 1-3.473 17.52l4.126 1.711zm6.045-19.231a52.328 52.328 0 0 0-3.983-20.087l-8.25 3.421a43.396 43.396 0 0 1 3.302 16.666h8.931zm-32.384-48.488a52.327 52.327 0 0 0-20.087-3.984v8.932a43.396 43.396 0 0 1 16.665 3.302l3.422-8.25zm-20.087-3.984a52.327 52.327 0 0 0-20.087 3.984l3.421 8.25a43.396 43.396 0 0 1 16.666-3.302V6.534zM263.419 38.92a52.327 52.327 0 0 0-3.984 20.087h8.932a43.396 43.396 0 0 1 3.302-16.666l-8.25-3.42zm-3.984 20.087a52.327 52.327 0 0 0 3.984 20.086l8.25-3.42a43.396 43.396 0 0 1-3.302-16.666h-8.932zm32.385 48.488a52.327 52.327 0 0 0 20.087 3.983v-8.931a43.396 43.396 0 0 1-16.666-3.302l-3.42 8.25zm20.087 3.983a52.327 52.327 0 0 0 20.087-3.983l-3.422-8.25a43.396 43.396 0 0 1-16.665 3.302v8.931zm48.488-32.385a52.327 52.327 0 0 0 3.983-20.086h-8.931a43.396 43.396 0 0 1-3.302 16.665l8.25 3.421z" fill="#3d3f95"></path></g><path d="M281.722 22.268a1.86 1.86 0 0 0-2.185-1.466l-16.43 3.232a1.86 1.86 0 1 0 .717 3.652l14.606-2.874 2.873 14.606a1.86 1.86 0 1 0 3.652-.719l-3.233-16.43zm-3.37-.678-4.107 6.118 3.09 2.074 4.106-6.118-3.09-2.074zM339.037 94.049a1.86 1.86 0 0 0 1.968 1.746l16.717-.997a1.86 1.86 0 0 0-.222-3.715l-14.86.887-.886-14.86a1.86 1.86 0 1 0-3.714.222l.997 16.717zm5.356-6.857-4.89 5.511 2.783 2.47 4.89-5.511-2.783-2.47zM349.038 29.633a1.86 1.86 0 0 0 1.79-1.93l-.622-16.734a1.86 1.86 0 0 0-3.719.139l.554 14.875-14.876.553a1.86 1.86 0 1 0 .139 3.72l16.734-.623zm-6.735-5.509 5.4 5.013 2.532-2.728-5.4-5.012-2.532 2.727zM277.75 86.67a1.86 1.86 0 0 0-1.79 1.929l.623 16.734a1.86 1.86 0 1 0 3.719-.138l-.554-14.875 14.876-.554a1.86 1.86 0 1 0-.139-3.719l-16.734.623zm-1.196 3.223 5.4 5.013 2.532-2.728-5.4-5.012-2.532 2.727zM512.918 22.48l.762-1.6-2.534-1.206v2.807h1.772zm0 24.815h-1.772v1.16l1.062.464.71-1.624zm77.988 0 .77 1.596 1.002-.483v-1.113h-1.772zm0-24.814 1.772-.03-.048-2.768-2.493 1.2.769 1.598zm-79.76 0v24.814h3.544V22.481h-3.544zm1.062 26.438c15.62 6.834 27.93 10.537 40.175 10.635 12.265.1 24.27-3.419 39.292-10.663l-1.54-3.193c-14.769 7.123-26.214 10.404-37.724 10.312-11.53-.093-23.317-3.573-38.783-10.339l-1.42 3.248zm80.47-1.624V22.481h-3.545v24.814h3.545zm-2.541-26.411c-14.914 7.18-26.409 10.731-37.907 10.761-11.499.03-23.208-3.46-38.55-10.765l-1.524 3.201c15.548 7.403 27.818 11.141 40.083 11.11 12.267-.033 24.32-3.836 39.435-11.113l-1.537-3.194zm-77.219 1.597h-1.772V28.527c1.772 1.773 3.544 0 3.544 0v-6.932h-3.544v6.932s1.772-1.772 3.544 0V22.48h-1.772zm1.772-.886c0-1.009.628-2.155 2.527-3.373 1.884-1.208 4.702-2.261 8.267-3.108 7.101-1.689 16.672-2.448 26.326-2.33 9.651.119 19.25 1.112 26.399 2.864 3.588.879 6.448 1.923 8.376 3.074 2.003 1.195 2.537 2.213 2.548 2.901l3.545-.057c-.042-2.6-1.985-4.52-4.276-5.888-2.366-1.413-5.617-2.559-9.35-3.473-7.493-1.836-17.378-2.845-27.198-2.965-9.816-.12-19.703.645-27.19 2.425-3.73.886-6.99 2.053-9.36 3.573-2.355 1.51-4.158 3.598-4.158 6.357h3.544zm74.443.028a4052.363 4052.363 0 0 1 .094 6.023c0 .057 0 .02.001-.026l.003-.052c.002-.03.013-.13.024-.2.106-.363 1.9-1.453 3.356-.426.079.204.14.47.148.526a3.16 3.16 0 0 1 .01.108l.001.025v.007l-.013-.67a2969.446 2969.446 0 0 1-.077-4.353l-.002-.1v-.034l-1.772.03-1.773.03v.035l.003.1.006.367a8046.841 8046.841 0 0 0 .085 4.691 3.183 3.183 0 0 0 .005.11l.008.078c.008.055.07.322.148.526 1.457 1.028 3.25-.063 3.356-.426a3.255 3.255 0 0 0 .027-.254c.002-.053.001-.123.001-.126l-.005-.354c-.01-.702-.036-2.404-.09-5.692l-3.544.057z" fill="#3d3f95"></path><path d="M512.918 72.551h-1.772v1.157l1.06.466.712-1.623zm77.988 0 .772 1.595 1-.484v-1.111h-1.772zm-79.76-24.814V72.55h3.544V47.737h-3.544zm1.06 26.437c15.62 6.862 27.931 10.58 40.177 10.68 12.267.099 24.273-3.434 39.295-10.708l-1.545-3.19c-14.77 7.151-26.214 10.446-37.721 10.353-11.53-.093-23.316-3.587-38.781-10.38l-1.426 3.245zm80.472-1.623V47.737h-3.545V72.55h3.545z" fill="#3d3f95"></path><path d="M512.918 96.48h-1.772v1.157l1.06.465.712-1.623zm77.988 0 .772 1.595 1-.485v-1.11h-1.772zm-79.76-24.815v24.814h3.544V71.665h-3.544zm1.06 26.437c15.62 6.862 27.931 10.58 40.177 10.68 12.267.1 24.273-3.434 39.295-10.707l-1.545-3.191c-14.77 7.151-26.214 10.446-37.721 10.353-11.53-.093-23.316-3.587-38.781-10.38l-1.426 3.245zm80.472-1.623V71.665h-3.545v24.814h3.545z" fill="#3d3f95"></path></svg>