<svg xmlns="http://www.w3.org/2000/svg" width="458" height="136" viewBox="0 0 458 136" fill="none"><g clip-path="url(#clip0_698_112)"><path fill-rule="evenodd" clip-rule="evenodd" d="M117.6 86.6401H112.08V64.08C125.176 64.08 123.12 62.3339 123.12 83.2799C123.12 86.0009 119.97 86.6401 117.6 86.6401ZM118.32 54.2401H112.08V33.1201C124.832 33.1201 122.88 31.3842 122.88 50.4001C122.88 51.6136 122.297 52.6289 121.622 53.2225C120.903 53.8552 119.62 54.2401 118.32 54.2401ZM98.8799 96.48H122.4C126.531 96.48 130.467 94.8458 132.665 92.8253C135.104 90.5845 136.32 86.9343 136.32 82.3201V70.0801C136.32 59.5256 130.148 59.9636 129.12 58.5602C131.191 58.3879 133.498 56.1549 134.393 54.7126C136.728 50.9488 136.08 42.5523 136.08 37.44C136.08 27.3115 130.339 23.04 120.24 23.04H98.8799V96.48Z" fill="#3D3F94"></path><path fill-rule="evenodd" clip-rule="evenodd" d="M293.76 35.2801C293.76 40.0145 293.144 48.8311 294.875 52.4056C295.621 53.9474 295.748 54.1203 296.803 55.2774C299.594 58.3385 309.57 64.0603 313.247 66.4331C319.295 70.3362 318.24 70.894 318.24 81.84C318.24 87.1144 316.072 87.3602 311.76 87.3602C308.018 87.3602 306.48 86.0931 306.48 82.3202V67.9202H293.76V84C293.76 93.0584 299.832 97.2001 308.88 97.2001C315.551 97.2001 322.092 97.8847 327.161 93.881C329.598 91.9566 331.2 88.1196 331.2 83.7602C331.2 78.5201 331.793 69.7395 330.213 65.5479C329.756 64.3375 328.485 62.595 327.545 61.735C324.603 59.0407 315.454 53.8402 311.905 51.4549C305.869 47.3968 306.72 48.0354 306.72 36.9602C306.72 31.7915 310.494 32.4001 314.16 32.4001C316.47 32.4001 318 33.9302 318 36.2402V49.44H330.96V35.76C330.96 24.3622 322.372 22.3201 312.48 22.3201C307.186 22.3201 302.524 22.7935 299.136 24.8154C296.054 26.6546 293.76 30.4567 293.76 35.2801Z" fill="#BCBEBF"></path><path fill-rule="evenodd" clip-rule="evenodd" d="M180.72 84.2399V76.0798C180.72 70.7748 186.986 71.19 190.8 69.36V85.92C188.211 87.2897 180.72 89.4489 180.72 84.2399ZM169.44 50.3999V58.56H181.2V51.1199C181.2 46.2395 190.8 46.1834 190.8 51.1199V59.7599C190.8 60.6704 189.508 60.6729 187.71 61.2297L176.97 64.4096C172.244 65.9822 168.72 68.4574 168.72 74.6398C168.72 78.9757 168.161 88.9012 169.534 92.0655C169.896 92.8978 170.919 94.342 171.556 94.844C175.264 97.766 181.863 97.8292 185.923 95.9229C188.865 94.5419 188.898 94.1263 190.8 93.12V96.4799H203.28V52.08C203.28 40.9475 196.944 38.1599 186 38.1599C177.357 38.1599 169.44 40.5231 169.44 50.3999Z" fill="#3D3F94"></path><path fill-rule="evenodd" clip-rule="evenodd" d="M390 42.48V38.88H378.241C377.688 38.88 377.521 39.047 377.521 39.6V96.48H390V49.68C391.103 49.4232 391.871 49.0099 393.024 48.6232C395.645 47.7448 400.561 47.3885 400.561 50.8799V96.48H413.041V48.24C413.041 44.9765 411.9 42.137 410.096 40.6247C407.076 38.0931 402.168 37.8346 398.331 38.5707C393.654 39.4682 392.725 41.0386 390 42.48Z" fill="#BCBEBF"></path><path fill-rule="evenodd" clip-rule="evenodd" d="M419.76 49.92V85.6799C419.76 93.6387 426.517 97.1999 434.16 97.1999C440.119 97.1999 446.972 97.7881 451.267 93.6662C453.874 91.1647 454.8 88.0162 454.8 83.04V71.9999H442.56V83.2798C442.56 84.9191 442.139 85.9268 441.193 86.7129C439.927 87.7654 432.24 88.8802 432.24 84.2399V50.8798C432.24 47.2019 440.054 47.203 441.704 49.3363C442.792 50.7429 442.318 57.7141 442.3 60.0207C442.293 60.9153 442.114 61.6798 443.04 61.6798H453.84C454.393 61.6798 454.56 61.5129 454.56 60.9598V50.3999C454.56 39.7365 445.791 38.1599 436.8 38.1599C431.738 38.1599 427.966 38.6407 424.782 40.5419C422.092 42.1485 419.76 45.6609 419.76 49.92Z" fill="#BCBEBF"></path><path fill-rule="evenodd" clip-rule="evenodd" d="M209.521 54C209.521 62.5734 210.576 65.397 218.077 69.2036L229.348 75.2122C232.415 77.2441 231.6 78.899 231.6 84.96C231.6 88.6127 224.01 88.4628 222.399 86.7209C221.026 85.2361 221.52 78.3045 221.52 75.6H209.521V84.96C209.521 93.3721 215.456 97.2 223.92 97.2C229.58 97.2 234.909 97.6453 239.354 94.394C244.788 90.4195 243.6 83.344 243.6 76.0799C243.6 73.0981 242.013 70.7122 239.931 68.9496L235.039 65.922C233.813 65.3156 223.794 59.9278 222.893 59.1078C221.164 57.5342 221.52 54.4669 221.52 51.84C221.52 48.5819 223.337 47.52 226.56 47.52C232.657 47.52 231.36 50.9635 231.36 59.2801H243.6C243.6 52.2374 244.638 44.7341 239.142 40.9382C234.702 37.8717 224.838 37.4735 219.069 38.829C214.914 39.8052 211.436 42.1197 210.285 46.3643C209.675 48.6105 209.521 51.2147 209.521 54Z" fill="#3D3F94"></path><path fill-rule="evenodd" clip-rule="evenodd" d="M344.4 108H356.4L373.201 38.8799H361.2C361.2 40.3284 356.565 61.9128 356.021 64.6607C355.702 66.2722 355.428 67.3806 355.1 69.0198C354.822 70.4119 354.346 72.1663 354.24 73.4399L353.381 69.2588C353.099 67.7581 352.853 66.3811 352.579 65.0216L347.76 38.8799H335.28L347.23 91.0099C347.585 92.5094 348.141 93.8193 347.778 95.2806L344.4 108Z" fill="#BCBEBF"></path><path fill-rule="evenodd" clip-rule="evenodd" d="M270.24 96.4799H282.72V22.0798H270.24V96.4799Z" fill="#3D3F94"></path><path fill-rule="evenodd" clip-rule="evenodd" d="M155.28 44.8802V38.88H143.04V96.48H155.52V54C155.52 52.4982 160.83 50.9091 162.681 50.6007C163.633 50.442 164.88 50.3838 165.84 50.1599V38.4001C163.081 38.4001 160.762 38.9725 159.06 40.4995C158.441 41.0546 157.563 41.919 157.03 42.5497L155.28 44.8802Z" fill="#3D3F94"></path><path fill-rule="evenodd" clip-rule="evenodd" d="M74.8799 54.9602V84.9601C74.8799 91.7474 70.7255 97.4847 65.6608 101.181C62.8877 103.205 57.9248 104.88 53.9999 104.88H25.44C19.8348 104.88 15.8629 102.586 12.48 100.32C13.0617 102.499 17.4781 106.428 19.69 107.75C22.5481 109.458 26.4412 111.12 30.9599 111.12H59.5201C64.9459 111.12 70.8975 108.522 74.4635 104.943C76.2051 103.196 77.8492 101.17 78.9655 98.8856C79.948 96.8741 81.1201 93.4595 81.1201 90.48V60.24C81.1201 54.4803 77.9742 49.5545 74.4601 46.02C73.0924 44.6444 72.1394 44.0179 70.5599 42.96C70.878 44.1514 74.8799 48.4465 74.8799 54.9602Z" fill="#3D3F94"></path><path fill-rule="evenodd" clip-rule="evenodd" d="M0 22.32V49.2001C0 57.1638 3.6743 63.2441 9.5928 67.4473C10.2226 67.8946 10.0114 67.9496 10.8 68.1599C9.38072 66.0402 8.63132 64.925 7.57312 62.267C6.72782 60.143 6.2399 57.3018 6.2399 54.4799V27.8399C6.2399 19.2756 11.4089 11.2133 18.5806 8.26071C21.4997 7.05881 23.9032 6.23993 27.36 6.23993H55.6801C63.5021 6.23993 67.6032 10.459 68.8802 10.8C66.8931 7.83272 64.603 5.2353 61.4569 3.3432C58.4088 1.5103 54.5902 0 49.68 0H21.8401C18.5701 0 15.1572 0.978821 12.877 2.07672C9.91961 3.50052 8.59642 4.4867 6.41992 6.66C2.78622 10.2889 0 15.1705 0 22.32Z" fill="#3D3F94"></path><path fill-rule="evenodd" clip-rule="evenodd" d="M250.32 96.4799H262.8V38.8799H250.32V96.4799Z" fill="#3D3F94"></path><path fill-rule="evenodd" clip-rule="evenodd" d="M20.8801 63.6001C20.6967 62.9133 20.394 62.7397 19.8137 61.7864C18.6552 59.8824 17.7745 57.6558 17.7504 55.2098C17.7164 51.7986 17.5497 34.3467 17.9687 32.3684C18.5897 29.4366 20.0819 26.7831 22.1333 24.773C23.9413 23.0016 26.8391 21.426 29.7874 20.9072C32.0733 20.5053 50.13 20.3961 52.7682 20.6719C54.3094 20.833 56.1369 21.2936 57.3603 21.8398C58.014 22.1315 58.6098 22.4623 59.2374 22.8427C60.1902 23.4198 60.5122 23.8164 61.2001 24.0001C59.5475 20.8766 57.0358 19.0287 54.0044 17.5158C50.6751 15.8542 46.4776 16.0801 41.52 16.0801C37.6984 16.0801 31.1532 15.6923 27.6626 16.1425C22.0208 16.8695 17.3555 19.5389 14.9569 24.3164C12.0332 30.1394 13.2002 36.0924 13.2002 43.4401C13.2002 50.5701 12.5327 55.5324 16.9814 60.5387C17.7649 61.4203 19.7307 63.2931 20.8801 63.6001Z" fill="#3D3F94"></path><path fill-rule="evenodd" clip-rule="evenodd" d="M63.6001 57.5999V74.8799C63.6001 81.5521 60.1447 86.8413 55.1991 89.039C53.4484 89.8171 51.4874 90.4798 48.96 90.4798H29.52C24.0024 90.4798 21.2389 87.472 19.9199 87.1199C22.7756 91.3843 26.9697 95.0399 34.0801 95.0399H52.0801C61.4458 95.0399 68.1602 88.2572 68.1602 78.4799V61.9199C68.1602 54.9866 65.507 50.807 60.2402 47.2798C60.6603 48.8533 63.6001 50.7129 63.6001 57.5999Z" fill="#3D3F94"></path><path fill-rule="evenodd" clip-rule="evenodd" d="M24.2397 39.6V54C24.2397 58.216 27.7023 63.0984 30.4799 63.8399C29.3498 62.1524 27.8398 60.152 27.8398 57.3599V41.76C27.8398 36.72 32.9439 31.9201 37.9198 31.9201H53.2798C54.5478 31.9201 55.9771 32.3935 56.9545 32.8056C58.2151 33.3369 58.8894 33.9724 60 34.56C59.7761 33.7218 58.9118 32.8099 58.3596 32.1202C57.8451 31.4779 56.8371 30.7545 56.1186 30.2814C54.583 29.2708 52.1597 28.3201 49.6799 28.3201H36.24C29.5205 28.3201 24.2397 33.3646 24.2397 39.6Z" fill="#3D3F94"></path><path fill-rule="evenodd" clip-rule="evenodd" d="M53.5201 55.1998V68.3999C53.5201 74.3821 48.4458 79.1999 43.4401 79.1999H28.3201C23.9157 79.1999 22.5324 76.937 21.1201 76.56C22.3705 78.4272 23.1427 79.4652 25.0217 80.8182C26.4952 81.8786 28.9962 82.7999 31.4399 82.7999H45.1199C51.5801 82.7999 56.88 77.7636 56.88 72.4798V56.1599C56.88 52.2555 53.4654 48.6481 50.8799 47.2798C51.0721 47.9987 51.2813 48.0077 51.8562 48.9437C53.0334 50.86 53.5201 52.599 53.5201 55.1998Z" fill="#3D3F94"></path><path fill-rule="evenodd" clip-rule="evenodd" d="M250.08 33.5999C250.08 34.153 250.247 34.3199 250.8 34.3199H263.04V23.76H250.08V33.5999Z" fill="#3D3F94"></path><path fill-rule="evenodd" clip-rule="evenodd" d="M32.9064 57.36C33.53 60.6094 37.7875 59.7221 42.7203 59.7269C44.7825 59.7289 46.6352 60.0251 47.5218 58.5636C48.1837 57.472 48.2566 54.5186 48.0131 53.0513C47.4093 49.4125 41.5697 50.5662 38.1601 50.5614C35.9554 50.5584 34.3799 50.3718 33.3594 51.8438C32.6533 52.8628 32.6368 55.9557 32.9064 57.36Z" fill="#4A4A4C"></path><path fill-rule="evenodd" clip-rule="evenodd" d="M297.84 120.48V119.52C293.419 119.52 295.601 117.749 292.561 130.8H295.68C296.071 129.122 296.395 127.424 296.776 125.656C297.137 123.984 297.698 122.08 299.118 121.715C301.845 121.014 300.442 124.379 300.179 125.698C299.951 126.84 299.478 129.887 299.041 130.8H302.4C302.4 129.376 303.139 126.342 303.497 124.936C304.234 122.035 305.043 121.68 307.2 121.68C307.582 123.316 307.008 124.425 306.659 126.178L305.76 130.8H308.88L309.746 126.386C310.271 124.112 312.033 119.239 307.682 119.264C305.832 119.275 304.898 120.252 303.84 120.96C302.18 117.822 299.325 119.694 297.84 120.48Z" fill="#3D3F94"></path><path fill-rule="evenodd" clip-rule="evenodd" d="M237.84 118.8V120.24C237.84 124.108 244.8 123.97 244.8 126.48C244.8 127.999 243.376 128.4 242.16 128.4C240.015 128.4 239.04 127.736 239.04 125.52C237.671 125.52 237.381 125.76 235.92 125.76C235.92 132.74 244.468 131.556 246.55 129.67C248.401 127.992 249.496 124.372 245.203 122.237C243.718 121.498 240.96 120.648 240.96 119.28C240.96 117.308 245.129 116.261 246 120C247.197 120 247.663 119.76 249.12 119.76C248.971 113.068 237.84 113.972 237.84 118.8Z" fill="#3D3F94"></path><path fill-rule="evenodd" clip-rule="evenodd" d="M371.28 126.24C371.28 127.787 370.191 128.4 368.4 128.4C366.36 128.4 365.52 127.608 365.52 125.52C364.151 125.52 363.86 125.76 362.4 125.76C362.4 127.337 362.616 128.632 363.769 129.671C365.824 131.524 370.78 131.632 373.003 129.642C374.426 128.367 375.318 125.795 373.795 123.726C373.242 122.975 372.55 122.667 371.683 122.237C368.778 120.794 367.44 120.778 367.44 118.8C367.44 117.701 371.588 116.17 372.48 120C373.678 120 374.143 119.76 375.6 119.76C374.983 112.346 362.202 113.985 364.456 121.054C365.398 124.011 371.28 124.494 371.28 126.24Z" fill="#3D3F94"></path><path fill-rule="evenodd" clip-rule="evenodd" d="M405.6 130.8H408.72C409.14 129 410.247 127.497 410.949 125.829C411.286 125.027 411.264 124.743 411.84 124.08C411.84 126.286 412.32 128.541 412.32 130.8H415.44C415.753 129.457 420.425 120.786 420.72 119.52H417.6C417.409 120.342 417.145 120.6 416.812 121.371C416.483 122.13 416.365 122.475 415.999 123.199C415.642 123.908 415.491 124.368 415.198 125.038L414.24 126.72C414.24 124.028 414 121.943 414 119.52C410.687 119.52 411.338 118.757 409.579 123.019C409.282 123.738 409.015 124.188 408.717 124.797C408.532 125.174 408.434 125.444 408.28 125.8C408.123 126.164 408.233 125.971 408.054 126.294C407.88 126.608 407.922 126.534 407.76 126.72C407.76 124.442 407.083 121.452 407.04 119.52H404.4C404.4 123.293 405.6 127.863 405.6 130.8Z" fill="#3D3F94"></path><path fill-rule="evenodd" clip-rule="evenodd" d="M348.48 128.64C346.309 128.64 346.32 127.501 346.32 125.52C346.32 122.511 349.248 120.556 350.698 122.343C352.269 124.279 350.694 128.64 348.48 128.64ZM352.321 120.72C352.024 120.641 348.023 117.041 344.801 121.361C341.867 125.293 343.22 131.04 346.32 131.04C348.768 131.04 348.53 131.092 350.4 129.84L350.131 130.791L353.28 130.8C353.28 128.676 356.4 117.226 356.4 115.2C352.934 115.2 353.486 114.656 352.858 117.658C352.655 118.631 352.342 119.769 352.321 120.72Z" fill="#3D3F94"></path><path fill-rule="evenodd" clip-rule="evenodd" d="M252.48 130.8C252.48 131.7 251.424 132.732 250.491 132.821C248.733 132.989 249.12 132.325 249.12 135.12C249.634 135.239 250.098 135.319 250.522 135.36H251.708C253.857 135.111 254.775 133.366 256.401 130.161L262.32 119.52H258.96C258.179 120.996 255.221 126.232 255.12 127.44C254.356 126.88 254.629 125.871 254.296 123.464C253.659 118.855 254.725 119.52 250.8 119.52C250.8 121.467 251.28 123.371 251.621 125.179C251.907 126.692 252.48 129.377 252.48 130.8Z" fill="#3D3F94"></path><path fill-rule="evenodd" clip-rule="evenodd" d="M382.08 128.64C378.237 128.64 379.481 121.68 383.041 121.68C386.836 121.68 384.985 128.64 382.08 128.64ZM376.561 126.24C376.561 128.822 378.538 131.04 381.121 131.04H382.8C388.589 131.04 391.525 119.28 382.8 119.28C378.901 119.28 376.561 122.297 376.561 126.24Z" fill="#3D3F94"></path><path fill-rule="evenodd" clip-rule="evenodd" d="M322.32 128.64C320.039 128.64 319.988 125.76 324.72 125.76C324.6 127.207 323.865 128.64 322.32 128.64ZM318.96 122.64C320.385 122.64 321.018 122.856 322.08 122.88C322.458 121.464 323.126 121.68 324.48 121.68C325.836 121.68 325.2 123.141 325.2 123.6C323.01 124.11 317.76 123.686 317.76 127.68C317.76 130.165 319.28 131.04 321.36 131.04C322.783 131.04 323.395 130.406 324.24 129.84L324.51 130.791L327.6 130.8C325.837 127.126 332.271 119.28 324 119.28C320.676 119.28 319.877 120.728 318.96 122.64Z" fill="#3D3F94"></path><path fill-rule="evenodd" clip-rule="evenodd" d="M32.9064 57.36C32.6368 55.9557 32.6533 52.8628 33.3594 51.8438C34.3799 50.3718 35.9554 50.5583 38.1601 50.5614C41.5697 50.5664 47.4093 49.4125 48.0131 53.0513C48.2566 54.5186 48.1837 57.472 47.5218 58.5636C46.6352 60.0251 44.7824 59.7289 42.7202 59.7269C37.7874 59.7219 33.53 60.6094 32.9064 57.36ZM31.44 53.2801V55.2H28.0801V56.8801C32.2048 56.4691 31.0577 56.2948 31.5951 58.1651C32.0231 59.6541 33.5178 61.2001 35.5202 61.2001H45.3601C47.8498 61.2001 49.44 59.2193 49.44 56.64H53.2801V54.9602H49.6801C49.6801 51.9626 48.5242 49.2002 45.6002 49.2002H35.2801C33.1408 49.2002 31.44 51.1485 31.44 53.2801Z" fill="#373435"></path><path fill-rule="evenodd" clip-rule="evenodd" d="M425.28 128.64C424.164 128.64 423.36 128.812 423.36 127.44C423.36 126.156 425.816 125.76 427.2 125.76C427.184 126.513 427.007 127.234 426.722 127.682C426.509 128.016 425.769 128.64 425.28 128.64ZM421.68 122.64C422.384 122.64 423.992 122.842 424.101 122.83C425.862 122.647 423.467 121.68 426.96 121.68C427.992 121.68 427.92 122.554 427.92 123.6C426.482 123.935 424.402 123.947 423.105 124.305C419.088 125.413 419.994 131.04 423.12 131.04C425.659 131.04 424.941 131.032 426.72 129.84C426.937 130.278 426.906 130.14 426.96 130.8H430.08C429.359 127.704 430.457 126.506 430.96 123.017C431.708 117.84 422.041 118.305 421.68 122.64Z" fill="#3D3F94"></path><path fill-rule="evenodd" clip-rule="evenodd" d="M286.8 121.68H287.52C288.298 121.68 288.96 122.723 288.96 123.6V124.32H284.4C284.962 123.149 285.029 121.68 286.8 121.68ZM281.04 125.76C281.04 128.533 282.86 131.04 285.6 131.04C288.698 131.04 289.848 130.537 291.36 127.68C290.508 127.661 289.225 127.374 288.48 127.2C287.912 129.327 284.16 129.905 284.16 126.24H291.12C292.1 126.24 291.84 125.488 291.84 123.6C291.84 116.846 281.04 118.343 281.04 125.76Z" fill="#3D3F94"></path><path fill-rule="evenodd" clip-rule="evenodd" d="M446.64 121.68H447.36C448.138 121.68 448.8 122.723 448.8 123.6V124.32H444.24C444.53 123.076 445.127 121.68 446.64 121.68ZM440.88 126C440.88 128.602 442.831 131.04 445.44 131.04C448.538 131.04 449.689 130.537 451.2 127.68C450.348 127.661 449.066 127.374 448.32 127.2C447.752 129.327 444 129.905 444 126.24H450.96C451.94 126.24 451.68 125.488 451.68 123.6C451.68 117.24 440.88 117.795 440.88 126Z" fill="#3D3F94"></path><path fill-rule="evenodd" clip-rule="evenodd" d="M334.8 120.72C334.854 120.072 334.913 120.067 335.04 119.52H331.92L330.861 125.18C330.534 126.83 329.795 129.241 329.76 130.8H332.88C332.901 129.848 333.199 128.853 333.408 127.968C333.984 125.535 334.142 121.68 337.44 121.68C337.904 121.68 338.4 122.108 338.4 122.4C338.4 123.697 337.098 130.012 336.72 130.8H339.84C340.223 130.002 340.388 128.578 340.619 127.498C340.836 126.484 341.09 125.363 341.341 124.139C341.804 121.885 341.961 119.28 338.4 119.28C336.805 119.28 335.869 120.154 334.8 120.72Z" fill="#3D3F94"></path><path fill-rule="evenodd" clip-rule="evenodd" d="M268.8 127.68C267.85 129.476 265.401 129.395 264.24 127.2C263.451 127.2 261.865 127.438 261.36 127.68C261.726 132.075 271.92 132.687 271.92 126.96C271.92 123.552 263.505 123.467 266.428 121.708C267.047 121.335 269.311 121.198 269.76 122.88C270.506 122.707 271.788 122.419 272.64 122.4C272.23 117.471 261.714 118.669 263.011 123.611C263.815 126.676 267.449 125.662 268.8 127.68Z" fill="#3D3F94"></path><path fill-rule="evenodd" clip-rule="evenodd" d="M391.921 119.52H390.24C390.077 120.22 389.824 121.158 389.761 121.92H391.44C390.77 124.797 390.191 127.923 389.521 130.8C394.105 130.8 392.159 132.229 394.56 121.92H396.721C396.784 121.158 397.037 120.22 397.2 119.52H395.04C395.295 116.461 396.011 117.6 398.161 117.6C398.227 116.807 398.473 116.16 398.64 115.44C397.231 115.323 394.313 113.971 392.815 116.334C392.437 116.931 391.99 118.681 391.921 119.52Z" fill="#3D3F94"></path><path fill-rule="evenodd" clip-rule="evenodd" d="M276.24 119.52H274.8C274.737 120.282 274.483 121.22 274.32 121.92H275.76C275.54 124.565 272.602 131.04 276.72 131.04C279.033 131.04 279.6 131.464 279.6 128.64C275.966 128.64 278.431 127.312 278.88 121.92H280.8C280.863 121.158 281.117 120.22 281.28 119.52H279.36C279.627 118.374 280.08 117.047 280.08 115.68C279.307 116.198 278.505 116.645 277.684 117.123C276.388 117.878 276.614 117.916 276.24 119.52Z" fill="#3D3F94"></path><path fill-rule="evenodd" clip-rule="evenodd" d="M399.12 119.52H397.68C397.517 120.22 397.264 121.158 397.2 121.92H398.64C398.262 123.542 396.911 128.391 397.505 129.757C398.184 131.32 399.951 131.04 401.521 131.04C402.493 131.04 402.461 129.493 402.48 128.64C399.974 128.64 400.178 128.714 401.76 121.92H403.68C403.704 120.863 403.92 120.798 403.92 119.52H402.24C402.47 118.537 402.937 116.744 402.961 115.68C399.126 117.709 399.559 117.636 399.12 119.52Z" fill="#3D3F94"></path><path fill-rule="evenodd" clip-rule="evenodd" d="M437.04 121.2C437.064 120.145 437.203 120.452 437.281 119.52H434.401C433.542 123.206 432.862 127.101 432 130.8H435.121C436.456 125.068 436.02 122.16 440.641 122.16C440.744 120.915 441.329 120.687 441.601 119.52C440.176 119.402 439.428 118.454 437.04 121.2Z" fill="#3D3F94"></path><path fill-rule="evenodd" clip-rule="evenodd" d="M451.201 24.0001C454.105 24.0001 456 24.9782 456 28.32C456 33.5596 447.651 33.4179 447.651 28.08C447.651 26.2911 449.367 24.0001 451.201 24.0001ZM446.4 27.8398C446.4 35.2156 456.758 35.5309 457.388 28.2592C457.643 25.3222 454.826 22.5601 451.921 22.5601C449.023 22.5601 446.4 25.0054 446.4 27.8398Z" fill="#3E4095"></path><path fill-rule="evenodd" clip-rule="evenodd" d="M451.201 28.0801V26.6401H452.401C453.318 26.6401 452.488 26.5664 453.121 26.8802C453.02 28.0909 452.463 28.0801 451.201 28.0801ZM450 30.9601H451.201V29.28C452.194 29.3021 452.012 28.865 453.121 30.9601H454.561C454.311 29.8883 453.872 29.7659 453.361 28.8001C454.964 28.3721 454.671 25.4402 452.401 25.4402H450V30.9601Z" fill="#3E4095"></path><path fill-rule="evenodd" clip-rule="evenodd" d="M20.8799 63.6001V63.8399L21.16 63.6401L20.8799 63.6001Z" fill="#3C4092"></path></g><defs><clipPath id="clip0_698_112"><rect width="457.404" height="135.36" fill="white"></rect></clipPath></defs></svg>